<svg width="100" height="100" viewBox="0 0 100 100" fill="none" xmlns="http://www.w3.org/2000/svg">
<circle cx="50" cy="50" r="50" fill="#FFC369"/>
<circle cx="50" cy="50" r="50" fill="url(#paint0_radial_146_5)"/>
<path d="M25.3176 82.0517H23V55.0516H25.3176C25.3176 62.3135 27.9056 68.4937 33.0816 73.5925C38.3348 78.6912 44.7082 81.2406 52.2018 81.2406C55.292 81.2406 57.7641 80.3521 59.6181 78.5753C61.5495 76.7212 62.5152 74.2878 62.5152 71.2749C62.5152 67.8757 60.3134 64.9787 55.91 62.5838C53.5151 61.3478 49.3821 59.4165 43.5108 56.7898C37.6395 54.086 33.5065 51.807 31.1116 49.9529C26.3219 46.2447 24.1974 41.3391 24.7382 35.2361C25.3562 29.1331 27.6738 24.4206 31.691 21.0987C35.7082 17.6996 40.2275 16 45.249 16C50.3477 16 54.9057 16.6953 58.9229 18.0858C63.0173 19.3992 65.3349 20.0558 65.8757 20.0558C67.4207 20.0558 68.1933 18.7039 68.1933 16H70.5109V37.2061H68.1933C68.1933 31.6438 66.1461 27.1245 62.0516 23.6481C57.9572 20.0944 52.704 18.3176 46.2919 18.3176C43.4335 18.3176 41.1932 19.1674 39.5709 20.867C37.9485 22.4893 37.1374 24.3048 37.1374 26.3133C37.1374 28.3219 37.4078 29.867 37.9485 30.9486C38.4893 32.0301 39.4164 33.0344 40.7297 33.9614C42.1202 34.8112 43.3177 35.5065 44.322 36.0473C45.3263 36.5881 46.91 37.322 49.073 38.249C51.3134 39.176 52.8585 39.8327 53.7083 40.219C57.9572 42.1503 60.4679 43.3091 61.2405 43.6954C62.013 44.0044 63.1332 44.5452 64.601 45.3177C66.0688 46.0902 67.1504 46.7855 67.8456 47.4035C68.6182 48.0216 69.5838 48.7941 70.7426 49.7211C71.9015 50.6482 72.7512 51.6139 73.292 52.6182C73.8328 53.5452 74.3736 54.6267 74.9143 55.8628C75.9959 58.3349 76.3821 61.2319 76.0731 64.5538C75.4551 70.8113 73.0989 75.6011 69.0044 78.923C64.9873 82.1676 59.5409 83.7899 52.6653 83.7899C46.4851 83.7899 40.3434 82.2062 34.2404 79.0388C32.1545 77.9573 30.6095 77.4165 29.6052 77.4165C26.7468 77.4165 25.3176 78.9616 25.3176 82.0517Z" fill="black"/>
<defs>
<radialGradient id="paint0_radial_146_5" cx="0" cy="0" r="1" gradientUnits="userSpaceOnUse" gradientTransform="translate(50 50) rotate(90) scale(50)">
<stop stop-color="white" stop-opacity="0.62"/>
<stop offset="1" stop-color="white" stop-opacity="0"/>
</radialGradient>
</defs>
</svg>
