<svg width="110" height="110" viewBox="0 0 110 110" fill="none" xmlns="http://www.w3.org/2000/svg">
<rect width="110" height="110" rx="30" fill="url(#paint0_linear_30_131)"/>
<path d="M30.66 82.1453L25.2441 21.4H84.7552L79.3336 82.1357L54.9632 88.892L30.66 82.1453Z" fill="#E34F26"/>
<path d="M54.9995 83.7278L74.6919 78.2683L79.3251 26.3668H54.9995V83.7278Z" fill="#EF652A"/>
<path d="M54.9998 48.8964H45.1413L44.4605 41.2673H54.9998V33.8171H54.9741H36.3184L36.4967 35.8159L38.3278 56.3465H54.9998V48.8964Z" fill="#EBEBEB"/>
<path d="M54.9998 68.2453L54.9671 68.2539L46.6698 66.0135L46.1394 60.0717H42.1076H38.6606L39.7044 71.7695L54.9655 76.0061L54.9998 75.9965V68.2453Z" fill="#EBEBEB"/>
<path d="M54.9741 48.8964V56.3464H64.1482L63.2834 66.0087L54.9741 68.2515V76.0024L70.2474 71.7695L70.3594 70.5108L72.1101 50.8969L72.2919 48.8964H70.2843H54.9741Z" fill="white"/>
<path d="M54.9741 33.8171V38.4443V41.2491V41.2673H72.9459H72.9698L73.1193 39.5927L73.4587 35.8159L73.6369 33.8171H54.9741Z" fill="white"/>
<defs>
<linearGradient id="paint0_linear_30_131" x1="55" y1="0" x2="55" y2="110" gradientUnits="userSpaceOnUse">
<stop stop-color="white" stop-opacity="0.25"/>
<stop offset="1" stop-color="#738AC5" stop-opacity="0.26"/>
</linearGradient>
</defs>
</svg>
