<svg width="30" height="30" viewBox="0 0 30 30" fill="none" xmlns="http://www.w3.org/2000/svg">
<path d="M14.9301 10.348C12.3966 10.348 10.353 12.3916 10.353 14.9251C10.353 17.4586 12.3966 19.5022 14.9301 19.5022C17.4636 19.5022 19.5072 17.4586 19.5072 14.9251C19.5072 12.3916 17.4636 10.348 14.9301 10.348ZM14.9301 17.9008C13.2928 17.9008 11.9544 16.5663 11.9544 14.9251C11.9544 13.2839 13.2889 11.9494 14.9301 11.9494C16.5713 11.9494 17.9058 13.2839 17.9058 14.9251C17.9058 16.5663 16.5673 17.9008 14.9301 17.9008V17.9008ZM20.762 10.1608C20.762 10.7544 20.2839 11.2284 19.6944 11.2284C19.1008 11.2284 18.6268 10.7504 18.6268 10.1608C18.6268 9.57126 19.1048 9.09323 19.6944 9.09323C20.2839 9.09323 20.762 9.57126 20.762 10.1608ZM23.7934 11.2443C23.7257 9.81425 23.3991 8.54749 22.3514 7.5038C21.3077 6.46012 20.041 6.13347 18.6109 6.06176C17.137 5.97811 12.7192 5.97811 11.2453 6.06176C9.81921 6.12948 8.55245 6.45613 7.50478 7.49982C6.45711 8.5435 6.13444 9.81027 6.06274 11.2404C5.97909 12.7143 5.97909 17.132 6.06274 18.6059C6.13046 20.036 6.45711 21.3028 7.50478 22.3464C8.55245 23.3901 9.81523 23.7168 11.2453 23.7885C12.7192 23.8721 17.137 23.8721 18.6109 23.7885C20.041 23.7208 21.3077 23.3941 22.3514 22.3464C23.3951 21.3028 23.7217 20.036 23.7934 18.6059C23.8771 17.132 23.8771 12.7182 23.7934 11.2443V11.2443ZM21.8893 20.1874C21.5786 20.9681 20.9771 21.5697 20.1923 21.8844C19.0172 22.3504 16.2287 22.2429 14.9301 22.2429C13.6314 22.2429 10.839 22.3464 9.66784 21.8844C8.88706 21.5736 8.28555 20.9721 7.97085 20.1874C7.50478 19.0122 7.61233 16.2238 7.61233 14.9251C7.61233 13.6265 7.50876 10.834 7.97085 9.66288C8.28157 8.8821 8.88308 8.28059 9.66784 7.96589C10.843 7.49982 13.6314 7.60737 14.9301 7.60737C16.2287 7.60737 19.0212 7.5038 20.1923 7.96589C20.9731 8.27661 21.5746 8.87812 21.8893 9.66288C22.3554 10.838 22.2478 13.6265 22.2478 14.9251C22.2478 16.2238 22.3554 19.0162 21.8893 20.1874Z" fill="black"/>
</svg>
