<svg width="30" height="30" viewBox="0 0 30 30" fill="none" xmlns="http://www.w3.org/2000/svg">
<path d="M2.87695 7.43604H7.00866C7.14437 14.3422 10.1903 17.2676 12.603 17.8708V7.43604H16.4934V13.3923C18.8759 13.1359 21.379 10.4217 22.2234 7.43604H26.1138C25.7956 8.98445 25.1612 10.4505 24.2505 11.7426C23.3398 13.0347 22.1724 14.125 20.8211 14.9454C22.3298 15.6944 23.6625 16.7552 24.7308 18.0574C25.7991 19.3598 26.5789 20.874 27.0186 22.5001H22.7362C22.3415 21.0876 21.5385 19.8232 20.4278 18.8655C19.3173 17.9078 17.9485 17.2995 16.4934 17.1168V22.5001H16.0259C7.77769 22.5001 3.07298 16.8454 2.87695 7.43604Z" fill="black"/>
</svg>
