<svg width="16" height="16" viewBox="0 0 16 16" fill="none" xmlns="http://www.w3.org/2000/svg">
<path d="M9.46098 1.6499C9.04677 1.6499 8.71098 1.98569 8.71098 2.3999C8.71098 2.81412 9.04677 3.1499 9.46098 3.1499V1.6499ZM13.5999 2.3999H14.3499C14.3499 1.98569 14.0141 1.6499 13.5999 1.6499V2.3999ZM12.8499 6.53883C12.8499 6.95304 13.1857 7.28883 13.5999 7.28883C14.0141 7.28883 14.3499 6.95304 14.3499 6.53883H12.8499ZM6.66957 8.26957C6.37668 8.56247 6.37668 9.03734 6.66957 9.33023C6.96247 9.62313 7.43734 9.62313 7.73023 9.33023L6.66957 8.26957ZM5.68524 3.1499C6.09945 3.1499 6.43524 2.81412 6.43524 2.3999C6.43524 1.98569 6.09945 1.6499 5.68524 1.6499V3.1499ZM14.3499 10.3999C14.3499 9.98569 14.0141 9.6499 13.5999 9.6499C13.1857 9.6499 12.8499 9.98569 12.8499 10.3999H14.3499ZM9.46098 3.1499H13.5999V1.6499H9.46098V3.1499ZM12.8499 2.3999V6.53883H14.3499V2.3999H12.8499ZM5.68524 1.6499H3.1999V3.1499H5.68524V1.6499ZM1.6499 3.1999V12.7999H3.1499V3.1999H1.6499ZM3.1999 14.3499H12.7999V12.8499H3.1999V14.3499ZM14.3499 12.7999V10.3999H12.8499V12.7999H14.3499ZM12.7999 14.3499C13.6559 14.3499 14.3499 13.6559 14.3499 12.7999H12.8499C12.8499 12.8275 12.8275 12.8499 12.7999 12.8499V14.3499ZM1.6499 12.7999C1.6499 13.6559 2.34386 14.3499 3.1999 14.3499V12.8499C3.17229 12.8499 3.1499 12.8275 3.1499 12.7999H1.6499ZM3.1999 1.6499C2.34386 1.6499 1.6499 2.34386 1.6499 3.1999H3.1499C3.1499 3.17229 3.17229 3.1499 3.1999 3.1499V1.6499ZM13.0696 1.86957L6.66957 8.26957L7.73023 9.33023L14.1302 2.93023L13.0696 1.86957Z" fill="#1B6CFF"/>
</svg>
