<svg width="30" height="30" viewBox="0 0 30 30" fill="none" xmlns="http://www.w3.org/2000/svg">
<path d="M18.2219 14.9999C18.2219 16.7785 16.7754 18.2219 14.9999 18.2219C13.2244 18.2219 11.778 16.7754 11.778 14.9999C11.778 13.2244 13.2244 11.778 14.9999 11.778C16.7754 11.778 18.2219 13.2214 18.2219 14.9999ZM14.9999 4.28564C9.09253 4.28564 4.28564 9.09253 4.28564 14.9999C4.28564 20.9073 9.09253 25.7142 14.9999 25.7142C17.1642 25.7142 19.2497 25.0714 21.0359 23.8499L19.6002 22.1678C18.228 23.0498 16.6311 23.5185 14.9999 23.5178C10.3032 23.5178 6.48207 19.6966 6.48207 14.9999C6.48207 10.3032 10.3032 6.48207 14.9999 6.48207C19.6966 6.48207 23.5178 10.3032 23.5178 14.9999C23.5178 15.6068 23.4497 16.2244 23.318 16.8321C23.0502 17.9395 22.2749 18.2747 21.6925 18.2326C21.1071 18.1859 20.4252 17.768 20.4214 16.7502V14.9999C20.4214 12.0106 17.9892 9.58156 15.003 9.58156C12.0183 9.58156 9.58233 12.0106 9.58233 14.9999C9.58314 16.4366 10.1542 17.8142 11.17 18.8301C12.1858 19.8461 13.5633 20.4173 14.9999 20.4183C15.7141 20.42 16.4215 20.2794 17.0808 20.0046C17.74 19.7298 18.3379 19.3265 18.8395 18.818C19.1569 19.3153 19.5954 19.7239 20.1138 20.0055C20.6322 20.2871 21.2136 20.4326 21.8035 20.4282C22.5818 20.4282 23.3532 20.168 23.9785 19.6928C24.6214 19.203 25.0997 18.4997 25.3637 17.6532C25.4073 17.5178 25.4862 17.2032 25.4862 17.2002L25.4892 17.1895C25.6461 16.5145 25.7142 15.8356 25.7142 14.9999C25.7142 9.09253 20.9073 4.28564 14.9999 4.28564Z" fill="black"/>
</svg>
