<svg width="110" height="110" viewBox="0 0 110 110" fill="none" xmlns="http://www.w3.org/2000/svg">
<g clip-path="url(#clip0_30_127)">
<rect width="110" height="110" rx="30" fill="url(#paint0_linear_30_127)"/>
<path d="M43.7862 35.872C48.5702 35.872 52.0542 36.912 54.2382 38.992C56.4568 41.0373 57.5662 43.8627 57.5662 47.468C57.5662 49.0973 57.3235 50.6573 56.8382 52.148C56.3528 53.604 55.5382 54.9213 54.3942 56.1C53.2848 57.244 51.8115 58.1453 49.9742 58.804C48.1368 59.4627 45.8662 59.792 43.1622 59.792H39.7822V73H31.9302V35.872H43.7862ZM43.3702 42.32H39.7822V53.344H42.3822C43.8728 53.344 45.1555 53.1533 46.2302 52.772C47.3048 52.3907 48.1368 51.784 48.7262 50.952C49.3155 50.12 49.6102 49.0453 49.6102 47.728C49.6102 45.8907 49.1075 44.5387 48.1022 43.672C47.0968 42.7707 45.5195 42.32 43.3702 42.32Z" fill="#31C6F0"/>
<path d="M80.7705 64.576C80.7705 66.4827 80.3199 68.112 79.4185 69.464C78.5172 70.7813 77.1652 71.7867 75.3625 72.48C73.5599 73.1733 71.3239 73.52 68.6545 73.52C66.6785 73.52 64.9799 73.3813 63.5585 73.104C62.1372 72.8613 60.7159 72.4453 59.2945 71.856V65.46C60.8199 66.1533 62.4665 66.7253 64.2345 67.176C66.0025 67.6267 67.5625 67.852 68.9145 67.852C70.4399 67.852 71.5145 67.6267 72.1385 67.176C72.7972 66.7253 73.1265 66.136 73.1265 65.408C73.1265 64.9227 72.9879 64.4893 72.7105 64.108C72.4679 63.7267 71.9132 63.2933 71.0465 62.808C70.1799 62.3227 68.8279 61.6987 66.9905 60.936C65.2225 60.1733 63.7665 59.428 62.6225 58.7C61.4785 57.9373 60.6292 57.036 60.0745 55.996C59.5199 54.9213 59.2425 53.5867 59.2425 51.992C59.2425 49.3573 60.2652 47.3813 62.3105 46.064C64.3559 44.7467 67.0772 44.088 70.4745 44.088C72.2425 44.088 73.9239 44.2613 75.5185 44.608C77.1132 44.9547 78.7599 45.5267 80.4585 46.324L78.1185 51.888C77.1825 51.472 76.2812 51.108 75.4145 50.796C74.5479 50.484 73.6985 50.2413 72.8665 50.068C72.0692 49.8947 71.2372 49.808 70.3705 49.808C69.2265 49.808 68.3599 49.964 67.7705 50.276C67.2159 50.588 66.9385 51.056 66.9385 51.68C66.9385 52.1307 67.0772 52.5467 67.3545 52.928C67.6665 53.2747 68.2385 53.656 69.0705 54.072C69.9372 54.488 71.2025 55.0427 72.8665 55.736C74.4959 56.3947 75.8999 57.088 77.0785 57.816C78.2572 58.5093 79.1585 59.3933 79.7825 60.468C80.4412 61.508 80.7705 62.8773 80.7705 64.576Z" fill="#31C6F0"/>
</g>
<defs>
<linearGradient id="paint0_linear_30_127" x1="55" y1="0" x2="55" y2="110" gradientUnits="userSpaceOnUse">
<stop stop-color="white" stop-opacity="0.25"/>
<stop offset="1" stop-color="#738AC5" stop-opacity="0.26"/>
</linearGradient>
<clipPath id="clip0_30_127">
<rect width="110" height="110" fill="white"/>
</clipPath>
</defs>
</svg>
