<svg width="30" height="30" viewBox="0 0 30 30" fill="none" xmlns="http://www.w3.org/2000/svg">
<path d="M24.0994 20.2738C24.0994 20.5064 24.0563 20.8102 23.9702 21.1851C23.884 21.5599 23.7935 21.8551 23.6987 22.0705C23.5177 22.5014 22.9921 22.9581 22.1217 23.4407C21.3117 23.8802 20.5103 24.0999 19.7175 24.0999C19.4848 24.0999 19.2564 24.0848 19.0324 24.0547C18.8083 24.0245 18.5606 23.9706 18.2891 23.8931C18.0177 23.8155 17.8152 23.753 17.6816 23.7057C17.548 23.6583 17.3089 23.5699 16.9642 23.4407C16.6195 23.3114 16.4084 23.2338 16.3308 23.208C15.4863 22.9064 14.7323 22.5488 14.0687 22.1351C12.9743 21.4544 11.8368 20.5237 10.6562 19.3431C9.47564 18.1625 8.54496 17.025 7.86419 15.9306C7.45055 15.267 7.09293 14.513 6.79132 13.6685C6.76547 13.591 6.68791 13.3798 6.55865 13.0351C6.42939 12.6904 6.34106 12.4513 6.29366 12.3177C6.24627 12.1842 6.18379 11.9816 6.10623 11.7102C6.02868 11.4388 5.97482 11.191 5.94466 10.9669C5.91449 10.7429 5.89941 10.5145 5.89941 10.2819C5.89941 9.48906 6.11916 8.68764 6.55865 7.8776C7.04122 7.00724 7.49795 6.48158 7.92882 6.30061C8.14425 6.20582 8.4394 6.11534 8.81426 6.02916C9.18912 5.94299 9.49288 5.8999 9.72555 5.8999C9.84619 5.8999 9.93668 5.91283 9.997 5.93868C10.1521 5.99039 10.3805 6.31785 10.6821 6.92107C10.7769 7.0848 10.9061 7.31747 11.0699 7.61908C11.2336 7.92069 11.3844 8.19429 11.5223 8.43989C11.6602 8.68548 11.7937 8.916 11.923 9.13144C11.9488 9.16591 12.0242 9.27362 12.1492 9.45459C12.2742 9.63556 12.3668 9.78851 12.4271 9.91347C12.4874 10.0384 12.5176 10.1612 12.5176 10.2819C12.5176 10.4542 12.3948 10.6696 12.1492 10.9282C11.9036 11.1867 11.6365 11.4237 11.3478 11.6391C11.0591 11.8545 10.792 12.0829 10.5464 12.3242C10.3008 12.5655 10.178 12.7637 10.178 12.9188C10.178 12.9964 10.1995 13.0933 10.2426 13.2096C10.2857 13.326 10.3223 13.4143 10.3525 13.4746C10.3826 13.5349 10.443 13.6383 10.5334 13.7848C10.6239 13.9313 10.6735 14.0132 10.6821 14.0304C11.337 15.211 12.0867 16.2236 12.9312 17.0681C13.7757 17.9126 14.7883 18.6623 15.9689 19.3172C15.9861 19.3258 16.068 19.3754 16.2145 19.4659C16.361 19.5564 16.4644 19.6167 16.5247 19.6468C16.585 19.677 16.6733 19.7136 16.7897 19.7567C16.906 19.7998 17.003 19.8214 17.0805 19.8214C17.2356 19.8214 17.4338 19.6986 17.6751 19.453C17.9164 19.2074 18.1448 18.9402 18.3602 18.6515C18.5756 18.3629 18.8126 18.0957 19.0711 17.8501C19.3297 17.6045 19.5451 17.4817 19.7175 17.4817C19.8381 17.4817 19.9609 17.5119 20.0858 17.5722C20.2108 17.6325 20.3638 17.7252 20.5447 17.8501C20.7257 17.9751 20.8334 18.0505 20.8679 18.0763C21.0833 18.2056 21.3138 18.3392 21.5594 18.477C21.805 18.6149 22.0786 18.7657 22.3802 18.9294C22.6818 19.0932 22.9145 19.2224 23.0782 19.3172C23.6815 19.6188 24.0089 19.8472 24.0606 20.0023C24.0865 20.0626 24.0994 20.1531 24.0994 20.2738Z" fill="black"/>
</svg>
