<svg width="30" height="30" viewBox="0 0 30 30" fill="none" xmlns="http://www.w3.org/2000/svg">
<path d="M22.4927 9.15922C22.2464 11.7471 21.1807 18.027 20.6383 20.9255C20.4089 22.1519 19.9572 22.5631 19.5199 22.6033C18.5696 22.6908 17.8478 21.9753 16.9273 21.3718C15.4869 20.4276 14.6732 19.8399 13.2749 18.9185C11.6591 17.8537 12.7066 17.2687 13.6275 16.3118C13.8685 16.0615 18.0559 12.2527 18.137 11.9072C18.1471 11.8639 18.1568 11.7026 18.0608 11.6179C17.9649 11.5331 17.8239 11.5618 17.722 11.5849C17.5775 11.6177 15.2764 13.1386 10.8187 16.1476C10.1656 16.5961 9.57405 16.8146 9.04396 16.8032C8.45961 16.7906 7.33558 16.4728 6.49993 16.2012C5.47501 15.868 4.66042 15.6919 4.73136 15.1261C4.76831 14.8313 5.17416 14.53 5.9489 14.222C10.7199 12.1434 13.9013 10.7729 15.4931 10.1107C20.0381 8.22029 20.9825 7.89192 21.598 7.88096C21.7334 7.87872 22.0361 7.91224 22.2322 8.07135C22.3626 8.18469 22.4458 8.34285 22.4652 8.51455C22.4984 8.72773 22.5076 8.94397 22.4927 9.15922Z" fill="black"/>
</svg>
