<svg width="110" height="110" viewBox="0 0 110 110" fill="none" xmlns="http://www.w3.org/2000/svg">
<rect width="110" height="110" rx="30" fill="url(#paint0_linear_30_119)"/>
<g clip-path="url(#clip0_30_119)">
<path d="M51.7476 74.9386H56.5456V51.2682L51.7476 49.6688V74.9386Z" fill="#424242"/>
<path d="M65.8219 40.8191C65.7686 44.0178 64.7557 45.6705 62.6232 45.6705C60.4374 45.6705 58.1983 44.4976 55.2129 43.0582C51.1612 41.139 49.2419 40.6058 46.7363 40.6058C42.6313 40.6058 39.4326 44.0178 39.6458 49.8821H43.2177C43.271 46.1503 44.6038 44.4976 46.7363 44.4976C48.8688 44.4976 51.1079 45.6171 53.8801 47.0033C57.9851 48.8692 60.1175 49.7222 62.5166 49.7222C66.1951 49.7222 69.607 47.7496 69.3405 40.8191H65.8219Z" fill="#424242"/>
<path d="M55 22C36.8207 22 22 36.8207 22 55C22 73.1793 36.8207 88 55 88C73.1793 88 88 73.1793 88 55C88 36.8207 73.2326 22 55 22ZM55 85.8675C37.9935 85.8675 24.1325 72.0598 24.1325 55C24.1325 37.9402 37.9935 24.1325 55 24.1325C72.0065 24.1325 85.8675 37.9935 85.8675 55C85.8675 72.0065 72.0065 85.8675 55 85.8675Z" fill="#424242"/>
</g>
<defs>
<linearGradient id="paint0_linear_30_119" x1="55" y1="0" x2="55" y2="110" gradientUnits="userSpaceOnUse">
<stop stop-color="white" stop-opacity="0.25"/>
<stop offset="1" stop-color="#738AC5" stop-opacity="0.26"/>
</linearGradient>
<clipPath id="clip0_30_119">
<rect width="66" height="66" fill="white" transform="translate(22 22)"/>
</clipPath>
</defs>
</svg>
