<svg width="30" height="30" viewBox="0 0 30 30" fill="none" xmlns="http://www.w3.org/2000/svg">
<path d="M23.1314 6.08595C22.5821 5.57988 20.3588 3.9665 15.4019 3.94487C15.4019 3.94487 9.55826 3.59451 6.71214 6.20707C5.12903 7.79017 4.57105 10.1129 4.5105 12.9893C4.44994 15.8657 4.37641 21.2552 9.57124 22.7172H9.57556L9.57124 24.9491C9.57124 24.9491 9.53664 25.8531 10.1335 26.0348C10.8516 26.2597 11.2755 25.572 11.9632 24.8323C12.3395 24.4257 12.8586 23.8288 13.2522 23.3747C16.8077 23.6731 19.537 22.9897 19.8484 22.8902C20.5665 22.6566 24.628 22.1376 25.2855 16.7481C25.9689 11.1856 24.9568 7.67338 23.1314 6.08595V6.08595ZM23.7327 16.3415C23.1747 20.84 19.883 21.1254 19.2775 21.3201C19.018 21.4023 16.6174 21.9992 13.6025 21.8045C13.6025 21.8045 11.3533 24.5166 10.6526 25.2216C10.4233 25.4509 10.1725 25.4292 10.1768 24.9751C10.1768 24.6766 10.1941 21.2682 10.1941 21.2682C10.1898 21.2682 10.1898 21.2682 10.1941 21.2682C5.79082 20.0484 6.05035 15.4591 6.09793 13.0585C6.14551 10.6579 6.59967 8.68986 7.94055 7.36628C10.3498 5.18194 15.3111 5.50635 15.3111 5.50635C19.5024 5.52365 21.5094 6.78667 21.9765 7.21056C23.5207 8.53414 24.308 11.7003 23.7327 16.3415V16.3415ZM17.7203 12.8466C17.7376 13.2186 17.1797 13.2445 17.1624 12.8725C17.1148 11.9209 16.6693 11.4581 15.7523 11.4062C15.3803 11.3846 15.4149 10.8266 15.7825 10.8482C16.9893 10.9131 17.6598 11.6052 17.7203 12.8466ZM18.5984 13.3354C18.6416 11.5014 17.4954 10.0653 15.3197 9.9053C14.9521 9.87935 14.991 9.32137 15.3587 9.34732C17.8674 9.52899 19.204 11.2548 19.1564 13.3483C19.152 13.7203 18.5897 13.703 18.5984 13.3354V13.3354ZM20.6313 13.915C20.6357 14.287 20.0734 14.2913 20.0734 13.9193C20.0474 10.3941 17.6987 8.47359 14.8483 8.45196C14.4806 8.44763 14.4806 7.89398 14.8483 7.89398C18.0361 7.91561 20.6011 10.1172 20.6313 13.915V13.915ZM20.1426 18.1582V18.1669C19.6754 18.9887 18.8017 19.897 17.902 19.6072L17.8934 19.5942C16.9807 19.339 14.831 18.2317 13.4728 17.1504C12.7721 16.5967 12.1319 15.9436 11.6388 15.3164C11.1933 14.7584 10.7434 14.0966 10.3066 13.3008C9.38525 11.6355 9.18195 10.8915 9.18195 10.8915C8.89215 9.99181 9.79616 9.11807 10.6223 8.65093H10.631C11.0289 8.44331 11.4095 8.51251 11.6647 8.81962C11.6647 8.81962 12.2011 9.45978 12.4303 9.77554C12.6466 10.0697 12.9364 10.5411 13.0878 10.805C13.3517 11.2765 13.1873 11.7566 12.9278 11.9556L12.4087 12.3708C12.1449 12.5827 12.1795 12.9763 12.1795 12.9763C12.1795 12.9763 12.9494 15.8874 15.8258 16.6227C15.8258 16.6227 16.2194 16.6573 16.4314 16.3934L16.8466 15.8744C17.0456 15.6149 17.5257 15.4505 17.9972 15.7143C18.633 16.0734 19.4419 16.6313 19.9782 17.1374C20.281 17.384 20.3502 17.7603 20.1426 18.1582Z" fill="black"/>
</svg>
