<svg width="30" height="30" viewBox="0 0 30 30" fill="none" xmlns="http://www.w3.org/2000/svg">
<path fill-rule="evenodd" clip-rule="evenodd" d="M22.2279 7.76479C21.287 6.82214 20.1674 6.07468 18.9342 5.56574C17.7009 5.05679 16.3784 4.79646 15.0433 4.79984C9.44488 4.79984 4.88741 9.33454 4.88515 14.9086C4.88515 16.6901 5.35244 18.4287 6.24062 19.9624L4.80029 25.1998L10.1848 23.7933C11.6743 24.6003 13.3429 25.0234 15.0387 25.0241H15.0433C20.6405 25.0241 25.198 20.4894 25.2003 14.9154C25.2041 13.5871 24.9434 12.2713 24.4332 11.044C23.923 9.81664 23.1735 8.70211 22.2279 7.76479V7.76479ZM15.0433 23.3181H15.0399C13.5277 23.3183 12.0434 22.9134 10.7426 22.1459L10.4349 21.9635L7.23969 22.7979L8.09167 19.6978L7.8914 19.3803C7.04597 18.0407 6.59842 16.4905 6.60042 14.9086C6.60269 10.2759 10.3896 6.50697 15.0467 6.50697C16.1558 6.50451 17.2543 6.72101 18.2788 7.14393C19.3033 7.56685 20.2333 8.18779 21.015 8.97082C21.801 9.75011 22.4239 10.6767 22.8479 11.697C23.2718 12.7174 23.4883 13.8112 23.485 14.9154C23.4827 19.548 19.6958 23.3181 15.0433 23.3181ZM19.6743 17.0245C19.4197 16.8973 18.1728 16.2869 17.9398 16.2025C17.7078 16.118 17.5392 16.0763 17.3695 16.3286C17.1998 16.5808 16.7133 17.1495 16.5651 17.3184C16.4168 17.4873 16.2686 17.5076 16.0152 17.3815C15.7617 17.2554 14.9437 16.9885 13.9741 16.1281C13.2194 15.4581 12.7102 14.6316 12.562 14.3782C12.4138 14.1249 12.5462 13.9886 12.674 13.8625C12.7883 13.7499 12.9275 13.5675 13.0542 13.4199C13.1809 13.2724 13.2228 13.1677 13.3076 12.9988C13.3925 12.8299 13.3506 12.6824 13.2861 12.5562C13.2228 12.429 12.7148 11.1858 12.5032 10.6802C12.2984 10.1904 12.0891 10.2557 11.9329 10.2489C11.7712 10.2423 11.6094 10.2393 11.4475 10.2399C11.3188 10.2432 11.1922 10.2729 11.0756 10.3271C10.959 10.3814 10.8549 10.459 10.7698 10.5552C10.5367 10.8086 9.88161 11.4189 9.88161 12.6621C9.88161 13.9053 10.7913 15.1068 10.918 15.2757C11.0447 15.4446 12.708 17.9952 15.2537 19.0897C15.8602 19.3498 16.3331 19.5052 16.7008 19.6224C17.3084 19.8149 17.8617 19.7868 18.2996 19.7226C18.7872 19.6505 19.801 19.1122 20.0126 18.5222C20.2242 17.9321 20.2242 17.4265 20.1608 17.3207C20.0974 17.2148 19.9266 17.1506 19.6743 17.0245" fill="black"/>
</svg>
