<svg width="110" height="110" viewBox="0 0 110 110" fill="none" xmlns="http://www.w3.org/2000/svg">
<rect width="110" height="110" rx="30" fill="url(#paint0_linear_30_109)"/>
<g clip-path="url(#clip0_30_109)">
<path d="M26.6899 54.9992C26.6899 66.2047 33.202 75.8884 42.6449 80.4774L29.1409 43.478C27.5701 46.9988 26.6899 50.895 26.6899 54.9992Z" fill="#22759B"/>
<path d="M74.111 53.5706C74.111 50.0719 72.8542 47.6489 71.7763 45.763C70.3413 43.4311 68.9963 41.4563 68.9963 39.1244C68.9963 36.5221 70.97 34.0997 73.75 34.0997C73.8756 34.0997 73.9946 34.1153 74.1169 34.1223C69.0803 29.508 62.37 26.6907 54.9999 26.6907C45.1098 26.6907 36.4086 31.765 31.3467 39.4509C32.0109 39.4708 32.6368 39.4848 33.1685 39.4848C36.1296 39.4848 40.7132 39.1255 40.7132 39.1255C42.2392 39.0355 42.4191 41.277 40.8947 41.4574C40.8947 41.4574 39.3611 41.6379 37.6546 41.7273L47.9637 72.3913L54.159 53.8108L49.7483 41.7262C48.2239 41.6368 46.7797 41.4563 46.7797 41.4563C45.2542 41.3669 45.433 39.0345 46.9585 39.1244C46.9585 39.1244 51.6337 39.4837 54.4154 39.4837C57.376 39.4837 61.9601 39.1244 61.9601 39.1244C63.4872 39.0345 63.6666 41.2759 62.1416 41.4563C62.1416 41.4563 60.6048 41.6368 58.9015 41.7262L69.132 72.1581L71.9557 62.7221C73.1796 58.8065 74.111 55.9941 74.111 53.5706Z" fill="#22759B"/>
<path d="M55.4967 57.4755L47.0029 82.157C49.539 82.9025 52.2211 83.3103 55.0001 83.3103C58.2968 83.3103 61.4583 82.7404 64.401 81.7056C64.3251 81.5844 64.2561 81.4556 64.1996 81.3156L55.4967 57.4755Z" fill="#22759B"/>
<path d="M79.8401 41.4171C79.9619 42.3189 80.0308 43.2869 80.0308 44.3281C80.0308 47.2009 79.4943 50.4302 77.8783 54.4681L69.231 79.4696C77.6472 74.5617 83.3081 65.4436 83.3081 54.9998C83.3087 50.0779 82.0514 45.4496 79.8401 41.4171Z" fill="#22759B"/>
<path d="M54.9998 22C36.8039 22 21.9995 36.8033 21.9995 54.9992C21.9995 73.1972 36.8039 88 54.9998 88C73.1951 88 88.0017 73.1972 88.0017 54.9992C88.0011 36.8033 73.1951 22 54.9998 22ZM54.9998 86.4874C37.6383 86.4874 23.5126 72.3617 23.5126 54.9992C23.5126 37.6377 37.6378 23.5131 54.9998 23.5131C72.3607 23.5131 86.4853 37.6377 86.4853 54.9992C86.4853 72.3617 72.3607 86.4874 54.9998 86.4874Z" fill="#22759B"/>
</g>
<defs>
<linearGradient id="paint0_linear_30_109" x1="55" y1="0" x2="55" y2="110" gradientUnits="userSpaceOnUse">
<stop stop-color="white" stop-opacity="0.25"/>
<stop offset="1" stop-color="#738AC5" stop-opacity="0.26"/>
</linearGradient>
<clipPath id="clip0_30_109">
<rect width="65.9984" height="66" fill="white" transform="translate(21.9995 22)"/>
</clipPath>
</defs>
</svg>
